<mxfile host="app.diagrams.net" agent="Mozilla/5.0 (X11; Linux x86_64; rv:142.0) Gecko/20100101 Firefox/142.0" version="28.2.0">
  <diagram name="Page-1" id="_BM30hnHLIMwVuOQ2O8r">
    <mxGraphModel dx="1382" dy="783" grid="1" gridSize="10" guides="1" tooltips="1" connect="1" arrows="1" fold="1" page="1" pageScale="1" pageWidth="850" pageHeight="1100" math="0" shadow="0">
      <root>
        <mxCell id="0" />
        <mxCell id="1" parent="0" />
        <mxCell id="706fDdCRAT8rq7-dStqY-1" value="&lt;font style=&quot;font-size: 20px;&quot;&gt;General Program Flow&lt;/font&gt;" style="rounded=0;whiteSpace=wrap;html=1;" vertex="1" parent="1">
          <mxGeometry x="365" y="40" width="120" height="60" as="geometry" />
        </mxCell>
        <mxCell id="706fDdCRAT8rq7-dStqY-6" style="edgeStyle=orthogonalEdgeStyle;rounded=0;orthogonalLoop=1;jettySize=auto;html=1;" edge="1" parent="1" source="706fDdCRAT8rq7-dStqY-2" target="706fDdCRAT8rq7-dStqY-5">
          <mxGeometry relative="1" as="geometry" />
        </mxCell>
        <mxCell id="706fDdCRAT8rq7-dStqY-2" value="&lt;font&gt;User views challenge info and chooses a challenge to attempt&lt;/font&gt;" style="strokeWidth=2;html=1;shape=mxgraph.flowchart.decision;whiteSpace=wrap;" vertex="1" parent="1">
          <mxGeometry x="57.5" y="180" width="170" height="130" as="geometry" />
        </mxCell>
        <mxCell id="706fDdCRAT8rq7-dStqY-3" value="Assembler page" style="strokeWidth=2;html=1;shape=mxgraph.flowchart.start_1;whiteSpace=wrap;" vertex="1" parent="1">
          <mxGeometry x="85" y="50" width="115" height="80" as="geometry" />
        </mxCell>
        <mxCell id="706fDdCRAT8rq7-dStqY-4" style="edgeStyle=orthogonalEdgeStyle;rounded=0;orthogonalLoop=1;jettySize=auto;html=1;entryX=0.5;entryY=0;entryDx=0;entryDy=0;entryPerimeter=0;" edge="1" parent="1" source="706fDdCRAT8rq7-dStqY-3" target="706fDdCRAT8rq7-dStqY-2">
          <mxGeometry relative="1" as="geometry" />
        </mxCell>
        <mxCell id="706fDdCRAT8rq7-dStqY-5" value="Uses IDE to make solution" style="html=1;strokeWidth=2;shape=manualInput;whiteSpace=wrap;rounded=1;size=26;arcSize=11;" vertex="1" parent="1">
          <mxGeometry x="300" y="190" width="110" height="85" as="geometry" />
        </mxCell>
        <mxCell id="706fDdCRAT8rq7-dStqY-7" value="" style="verticalLabelPosition=bottom;verticalAlign=top;html=1;shape=process;whiteSpace=wrap;rounded=1;size=0.14;arcSize=6;" vertex="1" parent="1">
          <mxGeometry x="390" y="400" width="100" height="60" as="geometry" />
        </mxCell>
      </root>
    </mxGraphModel>
  </diagram>
</mxfile>
